<svg width="800" height="600" xmlns="http://www.w3.org/2000/svg">

 <g>
  <title>background</title>
  <rect fill="none" id="canvas_background" height="602" width="802" y="-1" x="-1"/>
 </g>
 <g>
  <title>Layer 1</title>
  <ellipse stroke="#0f0f00" ry="280.500014" rx="280.500014" id="svg_18" cy="300.999986" cx="382.500014" stroke-width="28.5" fill="none"/>
  <g id="svg_1">
   <path id="svg_2" d="m593.976,376.93l0,-24.184l-171.032,-118.953l3.891,-111.207c-1.961,-58.3 -39.461,-67.586 -44.932,-67.586s-42.523,12.265 -41.99,67.586l3.891,111.207l-171.032,118.952l0,24.185l174.902,-32.522l4.452,127.242l-63.868,44.42l0,10.923l69.429,0c5.004,8.5 14.084,14.368 24.644,14.737c11.339,0.397 21.419,-5.592 26.783,-14.737l69.375,0l0,-10.923l-63.867,-44.42l4.451,-127.242l174.903,32.522z"/>
  </g>
  <g id="svg_3"/>
  <g id="svg_4"/>
  <g id="svg_5"/>
  <g id="svg_6"/>
  <g id="svg_7"/>
  <g id="svg_8"/>
  <g id="svg_9"/>
  <g id="svg_10"/>
  <g id="svg_11"/>
  <g id="svg_12"/>
  <g id="svg_13"/>
  <g id="svg_14"/>
  <g id="svg_15"/>
  <g id="svg_16"/>
  <g id="svg_17"/>
 </g>
</svg>